<svg xmlns="http://www.w3.org/2000/svg" viewBox="0 0 1150 780" font-family="monospace" font-size="11">
  <defs>
    <marker id="arrow" markerWidth="8" markerHeight="6" refX="8" refY="3" orient="auto">
      <path d="M0,0 L8,3 L0,6 Z" fill="#888"/>
    </marker>
  </defs>

  <!-- Background -->
  <rect width="1150" height="780" fill="#1a1a1a" rx="12"/>

  <!-- Title -->
  <text x="575" y="28" fill="#00C853" font-size="18" font-weight="bold" text-anchor="middle">HealthyPlant Sensor — Wiring Diagram (ESP32-S3)</text>
  <text x="575" y="46" fill="#888" font-size="11" text-anchor="middle">ESP32-S3 DevKitC-1 (42-pin, USB-C) + 4 Sensors — all signal pins on LEFT side</text>

  <!-- ======== Power buses ======== -->
  <!-- 3V3 bus -->
  <line x1="60" y1="60" x2="1090" y2="60" stroke="#ff6b6b" stroke-width="1.5" stroke-dasharray="6,3"/>
  <text x="42" y="64" fill="#ff6b6b" font-size="9" text-anchor="end">3V3</text>
  <!-- GND bus -->
  <line x1="60" y1="72" x2="1090" y2="72" stroke="#4ecdc4" stroke-width="1.5"/>
  <text x="42" y="76" fill="#4ecdc4" font-size="9" text-anchor="end">GND</text>

  <!-- ======== ESP32-S3 Board (center) ======== -->
  <!-- Board outline: 21 pins per side, step=22, first pin y=140, last y=140+20*22=580 -->
  <rect x="430" y="82" width="230" height="520" rx="10" fill="#2a2a2a" stroke="#00C853" stroke-width="2"/>
  <text x="545" y="101" fill="#00C853" font-size="13" font-weight="bold" text-anchor="middle">ESP32-S3</text>
  <text x="545" y="115" fill="#555" font-size="9" text-anchor="middle">DevKitC-1  (USB-C)</text>
  <!-- Antenna stub -->
  <rect x="495" y="82" width="100" height="12" rx="3" fill="#333" stroke="#555" stroke-width="1"/>
  <text x="545" y="92" fill="#444" font-size="8" text-anchor="middle">ANTENNA</text>
  <!-- USB-C -->
  <rect x="505" y="592" width="80" height="16" rx="4" fill="#333" stroke="#555" stroke-width="1"/>
  <text x="545" y="604" fill="#777" font-size="8" text-anchor="middle">USB-C</text>
  <!-- Module label -->
  <text x="545" y="248" fill="#333" font-size="28" font-weight="bold" text-anchor="middle">ESP32-S3</text>

  <!-- ======== LEFT PINS (21, top to bottom, y step=22) ======== -->
  <!-- pin dots at x=430, labels right-aligned at x=422 -->

  <!-- Pin L1: GND -->
  <circle cx="430" cy="140" r="5" fill="#4ecdc4"/>
  <text x="422" y="144" fill="#4ecdc4" font-size="10" font-weight="bold" text-anchor="end">GND</text>
  <line x1="430" y1="140" x2="430" y2="72" stroke="#4ecdc4" stroke-width="1" stroke-dasharray="3,2"/>

  <!-- Pin L2: 3V3 -->
  <circle cx="430" cy="162" r="5" fill="#ff6b6b"/>
  <text x="422" y="166" fill="#ff6b6b" font-size="10" font-weight="bold" text-anchor="end">3V3</text>
  <line x1="430" y1="162" x2="430" y2="60" stroke="#ff6b6b" stroke-width="1" stroke-dasharray="3,2"/>

  <!-- Pin L3: RST -->
  <circle cx="430" cy="184" r="4" fill="#555"/>
  <text x="422" y="188" fill="#555" font-size="10" text-anchor="end">RST</text>

  <!-- Pin L4: IO4 ← DS18B20 OneWire -->
  <circle cx="430" cy="206" r="6" fill="#ffd93d" stroke="#ffb300" stroke-width="1.5"/>
  <text x="422" y="210" fill="#ffd93d" font-size="10" font-weight="bold" text-anchor="end">IO4 (OneWire)</text>

  <!-- Pin L5: IO5 ← Soil Moisture ADC -->
  <circle cx="430" cy="228" r="6" fill="#74b9ff" stroke="#0984e3" stroke-width="1.5"/>
  <text x="422" y="232" fill="#74b9ff" font-size="10" font-weight="bold" text-anchor="end">IO5 (Soil ADC)</text>

  <!-- Pin L6: IO6 -->
  <circle cx="430" cy="250" r="4" fill="#555"/>
  <text x="422" y="254" fill="#555" font-size="10" text-anchor="end">IO6</text>

  <!-- Pin L7: IO7 -->
  <circle cx="430" cy="272" r="4" fill="#555"/>
  <text x="422" y="276" fill="#555" font-size="10" text-anchor="end">IO7</text>

  <!-- Pin L8: IO15 -->
  <circle cx="430" cy="294" r="4" fill="#555"/>
  <text x="422" y="298" fill="#555" font-size="10" text-anchor="end">IO15</text>

  <!-- Pin L9: IO16 -->
  <circle cx="430" cy="316" r="4" fill="#555"/>
  <text x="422" y="320" fill="#555" font-size="10" text-anchor="end">IO16</text>

  <!-- Pin L10: IO17 -->
  <circle cx="430" cy="338" r="4" fill="#555"/>
  <text x="422" y="342" fill="#555" font-size="10" text-anchor="end">IO17</text>

  <!-- Pin L11: IO18 -->
  <circle cx="430" cy="360" r="4" fill="#555"/>
  <text x="422" y="364" fill="#555" font-size="10" text-anchor="end">IO18</text>

  <!-- Pin L12: IO8 ← I2C SDA -->
  <circle cx="430" cy="382" r="6" fill="#a78bfa" stroke="#7c3aed" stroke-width="1.5"/>
  <text x="422" y="386" fill="#a78bfa" font-size="10" font-weight="bold" text-anchor="end">IO8 (SDA)</text>

  <!-- Pin L13: IO3 -->
  <circle cx="430" cy="404" r="4" fill="#555"/>
  <text x="422" y="408" fill="#555" font-size="10" text-anchor="end">IO3</text>

  <!-- Pin L14: IO46 -->
  <circle cx="430" cy="426" r="4" fill="#555"/>
  <text x="422" y="430" fill="#555" font-size="10" text-anchor="end">IO46</text>

  <!-- Pin L15: IO9 ← I2C SCL -->
  <circle cx="430" cy="448" r="6" fill="#a78bfa" stroke="#7c3aed" stroke-width="1.5"/>
  <text x="422" y="452" fill="#a78bfa" font-size="10" font-weight="bold" text-anchor="end">IO9 (SCL)</text>

  <!-- Pin L16: IO10 -->
  <circle cx="430" cy="470" r="4" fill="#555"/>
  <text x="422" y="474" fill="#555" font-size="10" text-anchor="end">IO10</text>

  <!-- Pin L17: IO11 -->
  <circle cx="430" cy="492" r="4" fill="#555"/>
  <text x="422" y="496" fill="#555" font-size="10" text-anchor="end">IO11</text>

  <!-- Pin L18: IO12 -->
  <circle cx="430" cy="514" r="4" fill="#555"/>
  <text x="422" y="518" fill="#555" font-size="10" text-anchor="end">IO12</text>

  <!-- Pin L19: IO13 -->
  <circle cx="430" cy="536" r="4" fill="#555"/>
  <text x="422" y="540" fill="#555" font-size="10" text-anchor="end">IO13</text>

  <!-- Pin L20: IO14 -->
  <circle cx="430" cy="558" r="4" fill="#555"/>
  <text x="422" y="562" fill="#555" font-size="10" text-anchor="end">IO14</text>

  <!-- Pin L21: IO21 -->
  <circle cx="430" cy="580" r="4" fill="#555"/>
  <text x="422" y="584" fill="#555" font-size="10" text-anchor="end">IO21</text>

  <!-- ======== RIGHT PINS (21, top to bottom) ======== -->
  <!-- pin dots at x=660, labels left-aligned at x=668 -->

  <!-- Pin R1: 5V -->
  <circle cx="660" cy="140" r="4" fill="#555"/>
  <text x="668" y="144" fill="#555" font-size="10">5V</text>

  <!-- Pin R2: GND -->
  <circle cx="660" cy="162" r="5" fill="#4ecdc4"/>
  <text x="668" y="166" fill="#4ecdc4" font-size="10" font-weight="bold">GND</text>
  <line x1="660" y1="162" x2="660" y2="72" stroke="#4ecdc4" stroke-width="1" stroke-dasharray="3,2"/>

  <!-- Pin R3: TX / IO43 -->
  <circle cx="660" cy="184" r="4" fill="#555"/>
  <text x="668" y="188" fill="#555" font-size="10">TX (IO43)</text>

  <!-- Pin R4: RX / IO44 -->
  <circle cx="660" cy="206" r="4" fill="#555"/>
  <text x="668" y="210" fill="#555" font-size="10">RX (IO44)</text>

  <!-- Pin R5: IO1 -->
  <circle cx="660" cy="228" r="4" fill="#555"/>
  <text x="668" y="232" fill="#555" font-size="10">IO1</text>

  <!-- Pin R6: IO2 -->
  <circle cx="660" cy="250" r="4" fill="#555"/>
  <text x="668" y="254" fill="#555" font-size="10">IO2</text>

  <!-- Pin R7: IO42 -->
  <circle cx="660" cy="272" r="4" fill="#555"/>
  <text x="668" y="276" fill="#555" font-size="10">IO42</text>

  <!-- Pin R8: IO41 -->
  <circle cx="660" cy="294" r="4" fill="#555"/>
  <text x="668" y="298" fill="#555" font-size="10">IO41</text>

  <!-- Pin R9: IO40 -->
  <circle cx="660" cy="316" r="4" fill="#555"/>
  <text x="668" y="320" fill="#555" font-size="10">IO40</text>

  <!-- Pin R10: IO39 -->
  <circle cx="660" cy="338" r="4" fill="#555"/>
  <text x="668" y="342" fill="#555" font-size="10">IO39</text>

  <!-- Pin R11: IO38 -->
  <circle cx="660" cy="360" r="4" fill="#555"/>
  <text x="668" y="364" fill="#555" font-size="10">IO38</text>

  <!-- Pin R12: IO37 -->
  <circle cx="660" cy="382" r="4" fill="#555"/>
  <text x="668" y="386" fill="#555" font-size="10">IO37</text>

  <!-- Pin R13: IO36 -->
  <circle cx="660" cy="404" r="4" fill="#555"/>
  <text x="668" y="408" fill="#555" font-size="10">IO36</text>

  <!-- Pin R14: IO35 -->
  <circle cx="660" cy="426" r="4" fill="#555"/>
  <text x="668" y="430" fill="#555" font-size="10">IO35</text>

  <!-- Pin R15: IO0 -->
  <circle cx="660" cy="448" r="4" fill="#555"/>
  <text x="668" y="452" fill="#555" font-size="10">IO0 (BOOT)</text>

  <!-- Pin R16: IO45 -->
  <circle cx="660" cy="470" r="4" fill="#555"/>
  <text x="668" y="474" fill="#555" font-size="10">IO45</text>

  <!-- Pin R17: IO48 -->
  <circle cx="660" cy="492" r="4" fill="#555"/>
  <text x="668" y="496" fill="#555" font-size="10">IO48</text>

  <!-- Pin R18: IO47 -->
  <circle cx="660" cy="514" r="4" fill="#555"/>
  <text x="668" y="518" fill="#555" font-size="10">IO47</text>

  <!-- Pin R19: IO26 -->
  <circle cx="660" cy="536" r="4" fill="#555"/>
  <text x="668" y="540" fill="#555" font-size="10">IO26</text>

  <!-- Pin R20: IO33 -->
  <circle cx="660" cy="558" r="4" fill="#555"/>
  <text x="668" y="562" fill="#555" font-size="10">IO33</text>

  <!-- Pin R21: IO34 -->
  <circle cx="660" cy="580" r="4" fill="#555"/>
  <text x="668" y="584" fill="#555" font-size="10">IO34</text>

  <!-- ======== DS18B20 (upper left) ======== -->
  <rect x="30" y="90" width="190" height="120" rx="8" fill="#2a2a2a" stroke="#ff9f43" stroke-width="1.5"/>
  <text x="125" y="112" fill="#ff9f43" font-size="12" font-weight="bold" text-anchor="middle">DS18B20</text>
  <text x="125" y="127" fill="#666" font-size="9" text-anchor="middle">Waterproof Soil Temp</text>
  <!-- Pins on right edge -->
  <circle cx="220" cy="148" r="3" fill="#ff6b6b"/>
  <text x="210" y="152" fill="#ff6b6b" font-size="9" text-anchor="end">VCC</text>
  <circle cx="220" cy="166" r="3" fill="#4ecdc4"/>
  <text x="210" y="170" fill="#4ecdc4" font-size="9" text-anchor="end">GND</text>
  <circle cx="220" cy="184" r="3" fill="#ffd93d"/>
  <text x="210" y="188" fill="#ffd93d" font-size="9" text-anchor="end">DATA</text>
  <!-- 4.7k pull-up -->
  <rect x="50" y="195" width="56" height="14" rx="3" fill="#333" stroke="#ff9f43" stroke-width="1"/>
  <text x="78" y="206" fill="#ff9f43" font-size="9" text-anchor="middle">4.7kΩ ↑</text>
  <text x="78" y="218" fill="#888" font-size="7" text-anchor="middle">DATA→3V3</text>
  <!-- DS18B20 VCC → 3V3 bus -->
  <path d="M220,148 L310,148 L310,60" stroke="#ff6b6b" stroke-width="1.5" fill="none" stroke-dasharray="5,3"/>
  <!-- DS18B20 GND → GND bus -->
  <path d="M220,166 L315,166 L315,72" stroke="#4ecdc4" stroke-width="1.5" fill="none"/>
  <!-- DS18B20 DATA → IO4 (left pin L4, y=206) -->
  <path d="M220,184 L380,184 L380,206 L430,206" stroke="#ffd93d" stroke-width="2" fill="none"/>
  <text x="355" y="198" fill="#ffd93d" font-size="9">IO4</text>

  <!-- ======== Soil Moisture (mid-upper left) ======== -->
  <rect x="30" y="240" width="190" height="110" rx="8" fill="#2a2a2a" stroke="#74b9ff" stroke-width="1.5"/>
  <text x="125" y="262" fill="#74b9ff" font-size="12" font-weight="bold" text-anchor="middle">Soil Moisture</text>
  <text x="125" y="277" fill="#666" font-size="9" text-anchor="middle">Capacitive v2.0</text>
  <!-- Pins on right edge -->
  <circle cx="220" cy="295" r="3" fill="#ff6b6b"/>
  <text x="210" y="299" fill="#ff6b6b" font-size="9" text-anchor="end">VCC</text>
  <circle cx="220" cy="313" r="3" fill="#4ecdc4"/>
  <text x="210" y="317" fill="#4ecdc4" font-size="9" text-anchor="end">GND</text>
  <circle cx="220" cy="331" r="3" fill="#74b9ff"/>
  <text x="210" y="335" fill="#74b9ff" font-size="9" text-anchor="end">AOUT</text>
  <!-- Soil VCC → 3V3 bus -->
  <path d="M220,295 L320,295 L320,60" stroke="#ff6b6b" stroke-width="1.5" fill="none" stroke-dasharray="5,3"/>
  <!-- Soil GND → GND bus -->
  <path d="M220,313 L325,313 L325,72" stroke="#4ecdc4" stroke-width="1.5" fill="none"/>
  <!-- Soil AOUT → IO5 (left pin L5, y=228) -->
  <path d="M220,331 L390,331 L390,228 L430,228" stroke="#74b9ff" stroke-width="2" fill="none"/>
  <text x="360" y="318" fill="#74b9ff" font-size="9">IO5</text>
  <!-- ADC note -->
  <text x="30" y="368" fill="#74b9ff" font-size="8">* Use IO5 (ADC2) only when WiFi idle</text>
  <text x="30" y="380" fill="#555" font-size="8">  or use IO1–IO10 on ADC1 instead</text>

  <!-- ======== BH1750 Light Sensor (lower left) ======== -->
  <rect x="30" y="410" width="190" height="120" rx="8" fill="#2a2a2a" stroke="#ffd93d" stroke-width="1.5"/>
  <text x="125" y="432" fill="#ffd93d" font-size="12" font-weight="bold" text-anchor="middle">BH1750</text>
  <text x="125" y="447" fill="#666" font-size="9" text-anchor="middle">Light Sensor (GY-302)</text>
  <text x="125" y="461" fill="#666" font-size="9" text-anchor="middle">I2C addr: 0x23</text>
  <!-- Pins on right edge -->
  <circle cx="220" cy="476" r="3" fill="#ff6b6b"/>
  <text x="210" y="480" fill="#ff6b6b" font-size="9" text-anchor="end">VCC (3.3V)</text>
  <circle cx="220" cy="492" r="3" fill="#4ecdc4"/>
  <text x="210" y="496" fill="#4ecdc4" font-size="9" text-anchor="end">GND</text>
  <circle cx="220" cy="508" r="3" fill="#a78bfa"/>
  <text x="210" y="512" fill="#a78bfa" font-size="9" text-anchor="end">SDA</text>
  <circle cx="220" cy="520" r="3" fill="#a78bfa"/>
  <text x="210" y="524" fill="#a78bfa" font-size="9" text-anchor="end">SCL</text>
  <!-- BH1750 VCC → 3V3 bus -->
  <path d="M220,476 L330,476 L330,60" stroke="#ff6b6b" stroke-width="1.5" fill="none" stroke-dasharray="5,3"/>
  <!-- BH1750 GND → GND bus -->
  <path d="M220,492 L335,492 L335,72" stroke="#4ecdc4" stroke-width="1.5" fill="none"/>
  <!-- BH1750 SDA → I2C shared node, then IO8 (y=382) -->
  <path d="M220,508 L370,508 L370,382 L430,382" stroke="#a78bfa" stroke-width="2" fill="none"/>
  <!-- BH1750 SCL → I2C shared node, then IO9 (y=448) -->
  <path d="M220,520 L360,520 L360,448 L430,448" stroke="#a78bfa" stroke-width="2" fill="none" stroke-dasharray="4,2"/>

  <!-- ======== BME280 (lower left, below BH1750) ======== -->
  <rect x="30" y="555" width="190" height="120" rx="8" fill="#2a2a2a" stroke="#00C853" stroke-width="1.5"/>
  <text x="125" y="577" fill="#00C853" font-size="12" font-weight="bold" text-anchor="middle">BME280</text>
  <text x="125" y="592" fill="#666" font-size="9" text-anchor="middle">Temp / Humidity / Pressure</text>
  <text x="125" y="606" fill="#666" font-size="9" text-anchor="middle">I2C addr: 0x76</text>
  <!-- Pins on right edge -->
  <circle cx="220" cy="621" r="3" fill="#ff6b6b"/>
  <text x="210" y="625" fill="#ff6b6b" font-size="9" text-anchor="end">VCC (3.3V)</text>
  <circle cx="220" cy="637" r="3" fill="#4ecdc4"/>
  <text x="210" y="641" fill="#4ecdc4" font-size="9" text-anchor="end">GND</text>
  <circle cx="220" cy="653" r="3" fill="#a78bfa"/>
  <text x="210" y="657" fill="#a78bfa" font-size="9" text-anchor="end">SDA (shared)</text>
  <circle cx="220" cy="665" r="3" fill="#a78bfa"/>
  <text x="210" y="669" fill="#a78bfa" font-size="9" text-anchor="end">SCL (shared)</text>
  <!-- BME280 VCC → 3V3 bus -->
  <path d="M220,621 L340,621 L340,60" stroke="#ff6b6b" stroke-width="1.5" fill="none" stroke-dasharray="5,3"/>
  <!-- BME280 GND → GND bus -->
  <path d="M220,637 L345,637 L345,72" stroke="#4ecdc4" stroke-width="1.5" fill="none"/>
  <!-- BME280 SDA → shared I2C SDA node at x=370, y=508, down to y=653 -->
  <path d="M220,653 L370,653 L370,508" stroke="#a78bfa" stroke-width="2" fill="none"/>
  <!-- BME280 SCL → shared I2C SCL node at x=360 -->
  <path d="M220,665 L360,665 L360,520" stroke="#a78bfa" stroke-width="2" fill="none" stroke-dasharray="4,2"/>

  <!-- Shared I2C node markers -->
  <circle cx="370" cy="382" r="4" fill="#a78bfa"/>
  <circle cx="360" cy="448" r="4" fill="#a78bfa"/>
  <text x="400" y="416" fill="#a78bfa" font-size="8">I2C SDA</text>
  <text x="400" y="462" fill="#a78bfa" font-size="8">I2C SCL</text>

  <!-- ======== Power Section (bottom right) ======== -->
  <rect x="670" y="640" width="460" height="120" rx="8" fill="#1e1e1e" stroke="#555" stroke-width="1" stroke-dasharray="5,3"/>
  <text x="900" y="660" fill="#888" font-size="12" font-weight="bold" text-anchor="middle">OUTDOOR ONLY — Battery + Solar</text>
  <rect x="685" y="668" width="110" height="55" rx="5" fill="#2a2a2a" stroke="#ffd93d" stroke-width="1"/>
  <text x="740" y="689" fill="#ffd93d" font-size="10" font-weight="bold" text-anchor="middle">Solar Panel</text>
  <text x="740" y="704" fill="#666" font-size="9" text-anchor="middle">6V 1W</text>
  <text x="740" y="716" fill="#888" font-size="8" text-anchor="middle">+  /  −</text>
  <rect x="820" y="668" width="100" height="55" rx="5" fill="#2a2a2a" stroke="#ff6b6b" stroke-width="1"/>
  <text x="870" y="689" fill="#ff6b6b" font-size="10" font-weight="bold" text-anchor="middle">TP4056</text>
  <text x="870" y="704" fill="#666" font-size="9" text-anchor="middle">USB-C Charger</text>
  <text x="870" y="716" fill="#888" font-size="8" text-anchor="middle">IN→BAT→OUT</text>
  <rect x="950" y="668" width="110" height="55" rx="5" fill="#2a2a2a" stroke="#00C853" stroke-width="1"/>
  <text x="1005" y="689" fill="#00C853" font-size="10" font-weight="bold" text-anchor="middle">18650</text>
  <text x="1005" y="704" fill="#666" font-size="9" text-anchor="middle">3.7V 3000mAh</text>
  <text x="1005" y="716" fill="#888" font-size="8" text-anchor="middle">+  /  −</text>
  <line x1="795" y1="695" x2="818" y2="695" stroke="#ffd93d" stroke-width="2" marker-end="url(#arrow)"/>
  <line x1="920" y1="695" x2="948" y2="695" stroke="#ff6b6b" stroke-width="2" marker-end="url(#arrow)"/>
  <path d="M870,668 L870,640 L660,640 L660,609" stroke="#ff6b6b" stroke-width="1.5" fill="none" stroke-dasharray="4,2" marker-end="url(#arrow)"/>
  <text x="755" y="636" fill="#ff6b6b" font-size="8">5V+GND → ESP32</text>

  <!-- ======== Legend (right side) ======== -->
  <rect x="680" y="90" width="140" height="136" rx="6" fill="#222" stroke="#444" stroke-width="1"/>
  <text x="750" y="108" fill="#ccc" font-size="11" font-weight="bold" text-anchor="middle">Wire Colors</text>
  <line x1="695" y1="122" x2="728" y2="122" stroke="#ff6b6b" stroke-width="2" stroke-dasharray="5,3"/>
  <text x="735" y="126" fill="#ff6b6b" font-size="9">3.3V Power</text>
  <line x1="695" y1="140" x2="728" y2="140" stroke="#4ecdc4" stroke-width="2"/>
  <text x="735" y="144" fill="#4ecdc4" font-size="9">Ground (GND)</text>
  <line x1="695" y1="158" x2="728" y2="158" stroke="#ffd93d" stroke-width="2"/>
  <text x="735" y="162" fill="#ffd93d" font-size="9">OneWire data</text>
  <line x1="695" y1="176" x2="728" y2="176" stroke="#74b9ff" stroke-width="2"/>
  <text x="735" y="180" fill="#74b9ff" font-size="9">Analog signal</text>
  <line x1="695" y1="194" x2="728" y2="194" stroke="#a78bfa" stroke-width="2"/>
  <text x="735" y="198" fill="#a78bfa" font-size="9">I2C SDA</text>
  <line x1="695" y1="212" x2="728" y2="212" stroke="#a78bfa" stroke-width="2" stroke-dasharray="4,2"/>
  <text x="735" y="216" fill="#a78bfa" font-size="9">I2C SCL</text>

  <!-- ======== Pin legend ======== -->
  <rect x="680" y="242" width="140" height="80" rx="6" fill="#222" stroke="#444" stroke-width="1"/>
  <text x="750" y="260" fill="#ccc" font-size="11" font-weight="bold" text-anchor="middle">Pin Marks</text>
  <circle cx="694" cy="276" r="5" fill="#ffd93d" stroke="#ffb300" stroke-width="1.5"/>
  <text x="705" y="280" fill="#ffd93d" font-size="9">Signal pin used</text>
  <circle cx="694" cy="294" r="5" fill="#a78bfa" stroke="#7c3aed" stroke-width="1.5"/>
  <text x="705" y="298" fill="#a78bfa" font-size="9">I2C pin used</text>
  <circle cx="694" cy="310" r="4" fill="#555"/>
  <text x="705" y="314" fill="#555" font-size="9">Unused pin</text>

  <!-- ======== I2C Addresses ======== -->
  <rect x="680" y="340" width="220" height="90" rx="6" fill="#222" stroke="#444" stroke-width="1"/>
  <text x="790" y="358" fill="#aaa" font-size="10" font-weight="bold" text-anchor="middle">I2C Addresses  (SDA=IO8, SCL=IO9)</text>
  <text x="790" y="376" fill="#ffd93d" font-size="9" text-anchor="middle">BH1750: 0x23  (ADDR pin LOW)</text>
  <text x="790" y="394" fill="#00C853" font-size="9" text-anchor="middle">BME280: 0x76  (SDO/CSB pin LOW)</text>
  <text x="790" y="412" fill="#888" font-size="8" text-anchor="middle">Both sensors share the same SDA/SCL bus</text>

  <!-- ======== ADC Note ======== -->
  <rect x="680" y="448" width="220" height="70" rx="6" fill="#222" stroke="#444" stroke-width="1"/>
  <text x="790" y="466" fill="#aaa" font-size="10" font-weight="bold" text-anchor="middle">ADC Note (Soil Moisture)</text>
  <text x="790" y="484" fill="#74b9ff" font-size="9" text-anchor="middle">IO5 = ADC1_CH4 on ESP32-S3</text>
  <text x="790" y="500" fill="#888" font-size="8" text-anchor="middle">ADC1 is safe with WiFi active</text>
  <text x="790" y="512" fill="#888" font-size="8" text-anchor="middle">(ADC2 blocked when WiFi on)</text>
</svg>
